PathFileType	4	(X/Y/Z)	60_2_68_p1_0-227_filt_butterworth.trc
DataRate	CameraRate	NumFrames	NumMarkers	Units	OrigDataRate	OrigDataStartFrame	OrigNumFrames
59.0	59.0	6	27	m	59.0	0	227
Frame#	Time	RHip			RKnee			RAnkle			RBigToe			RSmallToe			RHeel			LHip			LKnee			LAnkle			LBigToe			LSmallToe			LHeel			Neck			Head			Nose			RShoulder			RElbow			RWrist			RThumb			RIndex			RPinky			LShoulder			LElbow			LWrist			LThumb			LIndex			LPinky			
		X1	Y1	Z1	X2	Y2	Z2	X3	Y3	Z3	X4	Y4	Z4	X5	Y5	Z5	X6	Y6	Z6	X7	Y7	Z7	X8	Y8	Z8	X9	Y9	Z9	X10	Y10	Z10	X11	Y11	Z11	X12	Y12	Z12	X13	Y13	Z13	X14	Y14	Z14	X15	Y15	Z15	X16	Y16	Z16	X17	Y17	Z17	X18	Y18	Z18	X19	Y19	Z19	X20	Y20	Z20	X21	Y21	Z21	X22	Y22	Z22	X23	Y23	Z23	X24	Y24	Z24	X25	Y25	Z25	X26	Y26	Z26	X27	Y27	Z27	
0	0.0	0.33590734051815396	0.4820197093174144	-0.19198862520112933	0.3208619870945082	0.635422777896921	0.19666889877687307	0.3016824782328356	0.8577856174397386	0.5715029585644251	0.2909796537478433	0.6723105939740757	0.7041842499426647	0.36219833614138325	0.7041679063901133	0.6832812947960561	0.2800046379274398	0.9242724674539324	0.6117695939617551	0.1159645019973911	0.5002382883226025	-0.19241266827468073	0.1302301533771102	0.6461445669602531	0.1921672351620762	0.13395260439761067	0.8198325403430242	0.5676003711309363	0.1260311811263851	0.6386090790968045	0.6820459862158964	0.07015495641506515	0.6782135747456086	0.6614766435956073	0.14630780380003985	0.8879426137959776	0.6051275680680146	0.23710159429352287	0.27222942431665637	-0.7358662868965206	0.24265229829026352	0.1376838022172738	-0.9565655098692437	0.23051086919568697	0.11815906050942755	-0.8074386965055277	0.3865640007862727	0.29200920739538855	-0.6509044913522477	0.4204123763967607	0.3686197924459985	-0.3934136411878777	0.2749341093772797	0.21551908948109877	-0.18916339363062673	0.16656303705463174	0.20866098816998604	-0.10847927061446815	0.16998418165121604	0.2231501606438069	-0.09771469009331124	0.20360956917559092	0.2936921966328779	-0.07776048310540423	0.07335148182530234	0.2835714970660767	-0.6560565822223461	0.013511769983618568	0.3849660918651947	-0.3917975359461484	0.1294324066222743	0.2715443195713894	-0.18996948343313724	0.18905768626506786	0.23569622282963112	-0.10970700968600139	0.19506196692178962	0.22938953118980243	-0.08541746687823414	0.1794287944052279	0.24310010654540554	-0.09108463441803485
1	0.0169491525423728	0.3354560437897414	0.48042071742304293	-0.19421970545621814	0.3219787335783102	0.6355878615129701	0.19758468404217674	0.2996409941915874	0.8563028323869675	0.5698426927259618	0.29081641684638515	0.6721039892292857	0.7018324573736119	0.3599881336519966	0.6962229303760444	0.6793741026331395	0.2794157274232348	0.9053298617236457	0.6038447138004096	0.11427219762104013	0.49766787791552575	-0.19472529086809143	0.12866908900038632	0.6457664099127941	0.19226866133721635	0.13332806659929555	0.8151546672933988	0.5666323449723031	0.12600862355363138	0.638658713269644	0.6819332070267029	0.07021560597877273	0.6782240345835959	0.6612832608684145	0.14649320764350224	0.8868591758215052	0.6043155964922576	0.2371131068651594	0.27220581713761105	-0.7359075777973885	0.24275164669835136	0.13761535395642324	-0.9565400239586935	0.2305119759281234	0.11826270294443883	-0.8074887663825837	0.38648841654014837	0.2919821082726775	-0.650891699390517	0.4202810364914755	0.3689911802463665	-0.3932091073126332	0.27705190889936393	0.2224357252395855	-0.1895142649710975	0.1673201152207137	0.2138967974059562	-0.10890206483612208	0.16872911772589894	0.229821470575784	-0.09971118283072224	0.20357627451259974	0.2941913212917546	-0.07855242647951387	0.0733920384655629	0.2835696648964768	-0.6560858805571319	0.013221399574803628	0.38385042058501706	-0.3943080981858532	0.12783650661925763	0.26851067898065534	-0.19394779915930854	0.1952683128172849	0.23818599116626102	-0.11399574305245852	0.19952007466983512	0.2296856573418631	-0.08768076867703323	0.1806495555510735	0.24628289441779042	-0.0943839361002713
2	0.0338983050847457	0.3351531127249152	0.4794672005036681	-0.19555825127335003	0.3224168651554135	0.6356526720963694	0.19769854434570625	0.2983959826727528	0.8552482027438256	0.5686056267039534	0.29085847905564205	0.6723922754917597	0.7016261426011839	0.3586502273851038	0.6913324222150765	0.6774253719340323	0.2800027566159558	0.892971203841481	0.5986329692571395	0.11279115835169372	0.49585306883963565	-0.19610424732260734	0.1271697213185948	0.6453040147448104	0.19234069836456702	0.1333447324258563	0.8144757278344706	0.5664213226855931	0.12598404888926157	0.638723450539904	0.6818901136144232	0.0702488124993627	0.6782153584043203	0.6611515201029041	0.14659868109410287	0.8861598595278015	0.6038188499241005	0.23711605343379782	0.27219745972062825	-0.735934290653235	0.24280910185654278	0.13758481058676375	-0.9565316151408412	0.2305135350416533	0.11829601884586645	-0.8075200011338276	0.3864391131360508	0.29195444392325365	-0.6508793836907285	0.4201099863054546	0.36902032389828554	-0.39315522119410395	0.2783511859417784	0.22655236769031273	-0.18966634909971083	0.1695484662507127	0.21643548400920534	-0.10914598965265343	0.1696083973434613	0.23352280081430238	-0.10150758825847614	0.20348670865131457	0.29374590382380167	-0.08071252342381087	0.07341550791203413	0.2835708725762422	-0.6561005577099258	0.012987729680635994	0.3833058975995092	-0.3958282824121937	0.1275803735154036	0.26463901570773196	-0.19622858020510306	0.199889657571366	0.2428499448879543	-0.11683454352136269	0.20292941992882732	0.23195156789300925	-0.09008694414732249	0.1811741141682886	0.2478145068801909	-0.09643007385702033
3	0.0508474576271186	0.3350152492119348	0.47915536002334713	-0.19597229427418603	0.32198313327804634	0.6355822438815482	0.19727561028847523	0.29796480923048313	0.8545408045619378	0.567646789633505	0.2909761363209615	0.6726859776623229	0.7028453107974855	0.3583361983803678	0.6900126007614625	0.6778378772504308	0.28165340745704875	0.8901933284353921	0.5966279903435158	0.11179124852213637	0.49500102307408045	-0.19653696264327133	0.1261137090219303	0.6449115963739243	0.19236766426626373	0.13376140459713776	0.8166040902472222	0.5667762219705854	0.12595390094709014	0.6387934396637543	0.681943674197952	0.0702470969981705	0.6782116444981368	0.6611037846657998	0.14662328337817246	0.8859129653433397	0.6036515920559116	0.2371053054497919	0.2722012328099507	-0.7359427477931535	0.24282210109229566	0.13758334184707577	-0.9565365912097621	0.2305103420026967	0.11827844004027563	-0.8075281271566384	0.3864200136530982	0.29191386795191865	-0.6508700430431908	0.4198979240390673	0.3685062913770514	-0.3935145611110935	0.27876774570570384	0.22767310877179472	-0.18962504771107697	0.17332874497525125	0.21824030910271425	-0.10926024250021638	0.17270174375383207	0.23426410317133184	-0.10265309096330202	0.2033759762225093	0.29113170027750845	-0.08420099905890906	0.07342271156542372	0.2835765438563924	-0.6560970607184552	0.012967363165978827	0.3829789773194655	-0.39623949343821346	0.12853356409971795	0.26050658543514443	-0.19670303574449693	0.20326682879281358	0.24991844164060817	-0.11841429574467828	0.2058931201406636	0.23523808016026687	-0.09294639301205723	0.18095101340540237	0.2465917420397046	-0.09733477436287157
4	0.0677966101694915	0.3349774691851307	0.47909366423547417	-0.19597518548619836	0.3212238599276238	0.6354633512140424	0.19694040389938958	0.297937234737212	0.8540705272935798	0.5669274497957675	0.2908128509281343	0.6714869016080807	0.7035789712860797	0.358579694844896	0.6906243060489221	0.6797367343278161	0.2834842988627927	0.8942716527770058	0.5968724263254054	0.11111324473075357	0.49479852796520135	-0.1965730354481004	0.12568531773157424	0.6447041528400518	0.19236441747209743	0.1340650939480802	0.8184813167943598	0.5671363345561276	0.12594843295483327	0.6388158971571574	0.6819624553969263	0.07022471170644841	0.67821933943974	0.6611096259354861	0.14661668331764213	0.8859506928999961	0.6036430487672113	0.2370826579746126	0.27220353853531853	-0.7359394761392914	0.2428167415338874	0.13758304961558002	-0.95654222160796	0.23049660362614816	0.1182662229824307	-0.8075226328267835	0.3864376880837311	0.2918695659065438	-0.6508747357849247	0.4197108796257618	0.3676388693763475	-0.39445248121746734	0.2787415025999	0.22732457036798176	-0.18962735033589045	0.17788250093145802	0.2226216489808779	-0.10947572946930323	0.17649779125020448	0.23403459344454586	-0.10345193449005262	0.20335845901963912	0.2855006174708739	-0.08781535784008071	0.07342351365944227	0.2835829860676765	-0.6560833572206063	0.013504952314854959	0.38158490502258846	-0.39597531890565635	0.1297089942727122	0.2573027149444972	-0.19634867241164158	0.2068876325839393	0.25724246706876874	-0.1200063545822202	0.20982491819585566	0.23635163601927892	-0.09627108620166273	0.18081518818655437	0.24287245407035826	-0.09775576271720926
5	0.0847457627118644	0.334994619130144	0.4790932180081473	-0.1958438567601881	0.3207411939275387	0.6354146322336431	0.19689452495439166	0.298013284527247	0.8538832117362036	0.5666116812470045	0.29021265785303574	0.66767917642978	0.702933381358698	0.3588707347038228	0.6914518123490948	0.6814937620997308	0.2847492454087063	0.8994465320979302	0.5982237608253438	0.11026771278675204	0.49485398438794415	-0.19647924331570238	0.12562202413394158	0.6446051629715206	0.19238499993210983	0.13414591646648427	0.8191901468493109	0.5672999018177918	0.1260516374381852	0.6386865970951467	0.6815899602695923	0.07020767354061569	0.6781940633035556	0.6611050378671284	0.14660965567653378	0.8860835060564138	0.603685177650346	0.23706210445384007	0.27220064289275814	-0.7359341288177883	0.24281345058984266	0.13756449787242425	-0.9565365167523092	0.2304783515067589	0.11827675917445987	-0.8075161069035429	0.38651197548069144	0.2918517739796228	-0.6509008446004663	0.41963231673699974	0.36691626269151706	-0.3956642387223528	0.2786262918505458	0.2266996883171219	-0.1900447963109848	0.18204944753267682	0.22870917996756768	-0.109935303287367	0.1796251296526342	0.23453666950214594	-0.10501084633283808	0.20356188952924525	0.2783108031796686	-0.09088119182240675	0.07342541335259364	0.2835904342457602	-0.6560702801856346	0.0148551435389894	0.3781606077150533	-0.3953940017795978	0.1307752772155214	0.2546528611436951	-0.19600828315189905	0.2112104944862272	0.2611155768206268	-0.12219341485575615	0.21492155624275944	0.2334796971002901	-0.09954339337172967	0.1815688394374203	0.23765568430389564	-0.09814923445132884
